<mxfile host="app.diagrams.net" modified="2023-05-26T13:44:31.435Z" agent="Mozilla/5.0 (Windows NT 10.0; Win64; x64) AppleWebKit/537.36 (KHTML, like Gecko) Chrome/113.0.0.0 Safari/537.36" etag="mQ9mtptP1-Hu6q8mYijm" version="21.2.9" type="device">
  <diagram name="페이지-1" id="jc-KadAvrdyCg2frth9O">
    <mxGraphModel dx="1050" dy="491" grid="1" gridSize="10" guides="1" tooltips="1" connect="1" arrows="1" fold="1" page="1" pageScale="1" pageWidth="827" pageHeight="1169" math="0" shadow="0">
      <root>
        <mxCell id="0" />
        <mxCell id="1" parent="0" />
        <mxCell id="i3xSPhGQqnLWJ7iB3QsU-27" value="" style="edgeStyle=orthogonalEdgeStyle;rounded=0;orthogonalLoop=1;jettySize=auto;html=1;" edge="1" parent="1" source="i3xSPhGQqnLWJ7iB3QsU-14" target="i3xSPhGQqnLWJ7iB3QsU-22">
          <mxGeometry relative="1" as="geometry" />
        </mxCell>
        <mxCell id="i3xSPhGQqnLWJ7iB3QsU-34" value="" style="edgeStyle=orthogonalEdgeStyle;rounded=0;orthogonalLoop=1;jettySize=auto;html=1;" edge="1" parent="1" source="i3xSPhGQqnLWJ7iB3QsU-14" target="i3xSPhGQqnLWJ7iB3QsU-29">
          <mxGeometry relative="1" as="geometry" />
        </mxCell>
        <mxCell id="i3xSPhGQqnLWJ7iB3QsU-14" value="원본 대본 data" style="swimlane;whiteSpace=wrap;html=1;" vertex="1" parent="1">
          <mxGeometry x="120" y="110" width="200" height="150" as="geometry">
            <mxRectangle x="120" y="110" width="120" height="30" as="alternateBounds" />
          </mxGeometry>
        </mxCell>
        <mxCell id="i3xSPhGQqnLWJ7iB3QsU-15" value="화자 1:&amp;nbsp;" style="text;html=1;align=center;verticalAlign=middle;resizable=0;points=[];autosize=1;strokeColor=none;fillColor=none;" vertex="1" parent="i3xSPhGQqnLWJ7iB3QsU-14">
          <mxGeometry y="30" width="60" height="30" as="geometry" />
        </mxCell>
        <mxCell id="i3xSPhGQqnLWJ7iB3QsU-16" value="화자 2:&amp;nbsp;" style="text;html=1;align=center;verticalAlign=middle;resizable=0;points=[];autosize=1;strokeColor=none;fillColor=none;" vertex="1" parent="i3xSPhGQqnLWJ7iB3QsU-14">
          <mxGeometry y="60" width="60" height="30" as="geometry" />
        </mxCell>
        <mxCell id="i3xSPhGQqnLWJ7iB3QsU-20" value="화자 1:&amp;nbsp;" style="text;html=1;align=center;verticalAlign=middle;resizable=0;points=[];autosize=1;strokeColor=none;fillColor=none;" vertex="1" parent="i3xSPhGQqnLWJ7iB3QsU-14">
          <mxGeometry y="90" width="60" height="30" as="geometry" />
        </mxCell>
        <mxCell id="i3xSPhGQqnLWJ7iB3QsU-21" value="화자 3:&amp;nbsp;" style="text;html=1;align=center;verticalAlign=middle;resizable=0;points=[];autosize=1;strokeColor=none;fillColor=none;" vertex="1" parent="i3xSPhGQqnLWJ7iB3QsU-14">
          <mxGeometry y="120" width="60" height="30" as="geometry" />
        </mxCell>
        <mxCell id="i3xSPhGQqnLWJ7iB3QsU-22" value="수정 대본 data" style="swimlane;whiteSpace=wrap;html=1;" vertex="1" parent="1">
          <mxGeometry x="110" y="330" width="220" height="130" as="geometry" />
        </mxCell>
        <mxCell id="i3xSPhGQqnLWJ7iB3QsU-23" value="화자 1:&amp;nbsp;" style="text;html=1;align=center;verticalAlign=middle;resizable=0;points=[];autosize=1;strokeColor=none;fillColor=none;" vertex="1" parent="i3xSPhGQqnLWJ7iB3QsU-22">
          <mxGeometry y="30" width="60" height="30" as="geometry" />
        </mxCell>
        <mxCell id="i3xSPhGQqnLWJ7iB3QsU-24" value="화자 2:&amp;nbsp;" style="text;html=1;align=center;verticalAlign=middle;resizable=0;points=[];autosize=1;strokeColor=none;fillColor=none;" vertex="1" parent="i3xSPhGQqnLWJ7iB3QsU-22">
          <mxGeometry y="60" width="60" height="30" as="geometry" />
        </mxCell>
        <mxCell id="i3xSPhGQqnLWJ7iB3QsU-25" value="화자 3:&amp;nbsp;" style="text;html=1;align=center;verticalAlign=middle;resizable=0;points=[];autosize=1;strokeColor=none;fillColor=none;" vertex="1" parent="i3xSPhGQqnLWJ7iB3QsU-22">
          <mxGeometry y="90" width="60" height="30" as="geometry" />
        </mxCell>
        <mxCell id="i3xSPhGQqnLWJ7iB3QsU-35" value="" style="rounded=0;whiteSpace=wrap;html=1;fillColor=#dae8fc;strokeColor=#6c8ebf;opacity=50;" vertex="1" parent="i3xSPhGQqnLWJ7iB3QsU-22">
          <mxGeometry x="5" y="35" width="210" height="20" as="geometry" />
        </mxCell>
        <mxCell id="i3xSPhGQqnLWJ7iB3QsU-37" value="" style="rounded=0;whiteSpace=wrap;html=1;fillColor=#d5e8d4;strokeColor=#82b366;opacity=50;" vertex="1" parent="i3xSPhGQqnLWJ7iB3QsU-22">
          <mxGeometry x="5" y="65" width="210" height="20" as="geometry" />
        </mxCell>
        <mxCell id="i3xSPhGQqnLWJ7iB3QsU-38" value="" style="rounded=0;whiteSpace=wrap;html=1;fillColor=#ffe6cc;strokeColor=#d79b00;opacity=50;" vertex="1" parent="i3xSPhGQqnLWJ7iB3QsU-22">
          <mxGeometry x="5" y="95" width="210" height="20" as="geometry" />
        </mxCell>
        <mxCell id="i3xSPhGQqnLWJ7iB3QsU-28" value="화자 별 내용 종합" style="text;html=1;strokeColor=none;fillColor=none;align=center;verticalAlign=middle;whiteSpace=wrap;rounded=0;" vertex="1" parent="1">
          <mxGeometry x="180" y="270" width="190" height="30" as="geometry" />
        </mxCell>
        <mxCell id="i3xSPhGQqnLWJ7iB3QsU-29" value="화자 별 요약" style="swimlane;whiteSpace=wrap;html=1;" vertex="1" parent="1">
          <mxGeometry x="470" y="330" width="230" height="130" as="geometry" />
        </mxCell>
        <mxCell id="i3xSPhGQqnLWJ7iB3QsU-30" value="화자 1:&amp;nbsp;" style="text;html=1;align=center;verticalAlign=middle;resizable=0;points=[];autosize=1;strokeColor=none;fillColor=none;" vertex="1" parent="i3xSPhGQqnLWJ7iB3QsU-29">
          <mxGeometry y="30" width="60" height="30" as="geometry" />
        </mxCell>
        <mxCell id="i3xSPhGQqnLWJ7iB3QsU-31" value="화자 2:&amp;nbsp;" style="text;html=1;align=center;verticalAlign=middle;resizable=0;points=[];autosize=1;strokeColor=none;fillColor=none;" vertex="1" parent="i3xSPhGQqnLWJ7iB3QsU-29">
          <mxGeometry y="60" width="60" height="30" as="geometry" />
        </mxCell>
        <mxCell id="i3xSPhGQqnLWJ7iB3QsU-32" value="화자 3:&amp;nbsp;" style="text;html=1;align=center;verticalAlign=middle;resizable=0;points=[];autosize=1;strokeColor=none;fillColor=none;" vertex="1" parent="i3xSPhGQqnLWJ7iB3QsU-29">
          <mxGeometry y="90" width="60" height="30" as="geometry" />
        </mxCell>
        <mxCell id="i3xSPhGQqnLWJ7iB3QsU-36" value="" style="rounded=0;whiteSpace=wrap;html=1;fillColor=#dae8fc;strokeColor=#6c8ebf;opacity=50;" vertex="1" parent="i3xSPhGQqnLWJ7iB3QsU-29">
          <mxGeometry x="10" y="35" width="210" height="20" as="geometry" />
        </mxCell>
        <mxCell id="i3xSPhGQqnLWJ7iB3QsU-39" value="" style="rounded=0;whiteSpace=wrap;html=1;fillColor=#ffe6cc;strokeColor=#d79b00;opacity=50;" vertex="1" parent="i3xSPhGQqnLWJ7iB3QsU-29">
          <mxGeometry x="10" y="95" width="210" height="20" as="geometry" />
        </mxCell>
        <mxCell id="i3xSPhGQqnLWJ7iB3QsU-40" value="" style="rounded=0;whiteSpace=wrap;html=1;fillColor=#d5e8d4;strokeColor=#82b366;opacity=50;" vertex="1" parent="i3xSPhGQqnLWJ7iB3QsU-29">
          <mxGeometry x="10" y="65" width="210" height="20" as="geometry" />
        </mxCell>
        <mxCell id="i3xSPhGQqnLWJ7iB3QsU-41" value="" style="endArrow=classic;startArrow=classic;html=1;rounded=0;entryX=0;entryY=0.527;entryDx=0;entryDy=0;entryPerimeter=0;" edge="1" parent="1" target="i3xSPhGQqnLWJ7iB3QsU-30">
          <mxGeometry width="50" height="50" relative="1" as="geometry">
            <mxPoint x="330" y="376" as="sourcePoint" />
            <mxPoint x="470" y="250" as="targetPoint" />
          </mxGeometry>
        </mxCell>
        <mxCell id="i3xSPhGQqnLWJ7iB3QsU-42" value="" style="endArrow=classic;startArrow=classic;html=1;rounded=0;entryX=0;entryY=0.527;entryDx=0;entryDy=0;entryPerimeter=0;" edge="1" parent="1">
          <mxGeometry width="50" height="50" relative="1" as="geometry">
            <mxPoint x="330" y="406" as="sourcePoint" />
            <mxPoint x="470" y="406" as="targetPoint" />
          </mxGeometry>
        </mxCell>
        <mxCell id="i3xSPhGQqnLWJ7iB3QsU-43" value="" style="endArrow=classic;startArrow=classic;html=1;rounded=0;entryX=0;entryY=0.527;entryDx=0;entryDy=0;entryPerimeter=0;" edge="1" parent="1">
          <mxGeometry width="50" height="50" relative="1" as="geometry">
            <mxPoint x="331" y="434" as="sourcePoint" />
            <mxPoint x="471" y="434" as="targetPoint" />
          </mxGeometry>
        </mxCell>
        <mxCell id="i3xSPhGQqnLWJ7iB3QsU-44" value="GPT-3.5" style="text;html=1;strokeColor=none;fillColor=none;align=center;verticalAlign=middle;whiteSpace=wrap;rounded=0;" vertex="1" parent="1">
          <mxGeometry x="590" y="200" width="60" height="30" as="geometry" />
        </mxCell>
        <mxCell id="i3xSPhGQqnLWJ7iB3QsU-45" value="" style="shape=image;verticalLabelPosition=bottom;labelBackgroundColor=default;verticalAlign=top;aspect=fixed;imageAspect=0;image=https://i.namu.wiki/i/Trhh3NbX78ZqUJyFblACvejsfPNdAXXN8jQtPo10nSVq7Bk1ZvDKB9d1balCxMLeWXDbZ8U_R1XWhuIwI1dVFA.svg;opacity=70;" vertex="1" parent="1">
          <mxGeometry x="590" y="220" width="60" height="60" as="geometry" />
        </mxCell>
        <mxCell id="i3xSPhGQqnLWJ7iB3QsU-46" value="" style="rounded=0;whiteSpace=wrap;html=1;" vertex="1" parent="1">
          <mxGeometry x="30" y="30" width="20" height="10" as="geometry" />
        </mxCell>
        <mxCell id="i3xSPhGQqnLWJ7iB3QsU-47" value="" style="rounded=0;whiteSpace=wrap;html=1;" vertex="1" parent="1">
          <mxGeometry x="790" y="500" width="20" height="10" as="geometry" />
        </mxCell>
      </root>
    </mxGraphModel>
  </diagram>
</mxfile>
